<?xml version="1.0" encoding="UTF-8" standalone="no"?>
<!-- Created with Inkscape (http://www.inkscape.org/) -->

<svg
   width="512"
   height="512"
   viewBox="0 0 135.46667 135.46667"
   version="1.1"
   id="svg1174"
   inkscape:version="1.3.2 (091e20ef0f, 2023-11-25, custom)"
   sodipodi:docname="kazari_logo.svg"
   inkscape:export-filename="kazari_logo.png"
   inkscape:export-xdpi="96"
   inkscape:export-ydpi="96"
   xmlns:inkscape="http://www.inkscape.org/namespaces/inkscape"
   xmlns:sodipodi="http://sodipodi.sourceforge.net/DTD/sodipodi-0.dtd"
   xmlns="http://www.w3.org/2000/svg"
   xmlns:svg="http://www.w3.org/2000/svg">
  <sodipodi:namedview
     id="namedview1176"
     pagecolor="#505050"
     bordercolor="#eeeeee"
     borderopacity="1"
     inkscape:pageshadow="0"
     inkscape:pageopacity="0"
     inkscape:pagecheckerboard="false"
     inkscape:document-units="mm"
     showgrid="false"
     fit-margin-top="0"
     fit-margin-left="0"
     fit-margin-right="0"
     fit-margin-bottom="0"
     inkscape:zoom="0.7803872"
     inkscape:cx="354.952"
     inkscape:cy="180.67954"
     inkscape:window-width="1366"
     inkscape:window-height="714"
     inkscape:window-x="0"
     inkscape:window-y="30"
     inkscape:window-maximized="1"
     inkscape:current-layer="layer1"
     inkscape:showpageshadow="2"
     inkscape:deskcolor="#d1d1d1" />
  <defs
     id="defs1171" />
  <g
     inkscape:groupmode="layer"
     id="layer2"
     inkscape:label="Layer 2">
    <circle
       style="fill:#ffffff;stroke-width:1.1;stroke-linecap:round;stroke-linejoin:round"
       id="path1"
       cx="67.73336"
       cy="67.73333"
       r="67.733307" />
  </g>
  <g
     inkscape:label="Layer 1"
     inkscape:groupmode="layer"
     id="layer1"
     transform="translate(-42.728897,-130.20149)">
    <g
       id="g1525"
       transform="matrix(0.85386151,0,0,0.85386151,6.2443363,19.027449)">
      <path
         transform="matrix(1.0709278,0,0,1.0877407,99.22522,-135.72619)"
         style="fill:none;stroke:#ff0000;stroke-width:5.09589;stroke-miterlimit:4;stroke-dasharray:none;stroke-opacity:1"
         inkscape:transform-center-y="-6.6206615"
         inkscape:randomized="0"
         inkscape:rounded="0.13"
         inkscape:flatsided="false"
         sodipodi:arg2="1.5707963"
         sodipodi:arg1="0.52359878"
         sodipodi:r2="17.77293"
         sodipodi:r1="24.346479"
         sodipodi:cy="279.22708"
         sodipodi:cx="21.309652"
         sodipodi:sides="3"
         id="path21-3"
         sodipodi:type="star"
         d="m 42.394322,291.40032 c -1.418013,2.45607 -18.248643,5.59969 -21.084669,5.59969 -2.836027,0 -19.6666571,-3.14362 -21.08467039,-5.59969 C -1.1930306,288.94425 4.49983,272.79669 5.9178431,270.34062 7.3358563,267.88455 18.473626,254.8806 21.309652,254.8806 c 2.836027,0 13.973796,13.00395 15.391809,15.46002 1.418013,2.45607 7.110874,18.60363 5.692861,21.0597 z" />
      <path
         transform="matrix(0.75726031,-0.75726031,0.76914883,0.76914883,-138.21929,-18.460787)"
         style="fill:none;stroke:#ff0000;stroke-width:5.09589;stroke-miterlimit:4;stroke-dasharray:none;stroke-opacity:1"
         inkscape:transform-center-y="-6.6206615"
         inkscape:randomized="0"
         inkscape:rounded="0.13"
         inkscape:flatsided="false"
         sodipodi:arg2="1.5707963"
         sodipodi:arg1="0.52359878"
         sodipodi:r2="17.77293"
         sodipodi:r1="24.346479"
         sodipodi:cy="279.22708"
         sodipodi:cx="21.309652"
         sodipodi:sides="3"
         id="path21-2-29"
         sodipodi:type="star"
         d="m 42.394322,291.40032 c -1.418013,2.45607 -18.248643,5.59969 -21.084669,5.59969 -2.836027,0 -19.6666571,-3.14362 -21.08467039,-5.59969 C -1.1930306,288.94425 4.49983,272.79669 5.9178431,270.34062 7.3358563,267.88455 18.473626,254.8806 21.309652,254.8806 c 2.836027,0 13.973796,13.00395 15.391809,15.46002 1.418013,2.45607 7.110874,18.60363 5.692861,21.0597 z" />
      <path
         transform="matrix(0,-1.0709278,1.0877407,0,-223.19875,232.35698)"
         style="fill:none;stroke:#ff0000;stroke-width:5.09589;stroke-miterlimit:4;stroke-dasharray:none;stroke-opacity:1"
         inkscape:transform-center-y="-6.6206615"
         inkscape:randomized="0"
         inkscape:rounded="0.13"
         inkscape:flatsided="false"
         sodipodi:arg2="1.5707963"
         sodipodi:arg1="0.52359878"
         sodipodi:r2="17.77293"
         sodipodi:r1="24.346479"
         sodipodi:cy="279.22708"
         sodipodi:cx="21.309652"
         sodipodi:sides="3"
         id="path21-2-2-7"
         sodipodi:type="star"
         d="m 42.394322,291.40032 c -1.418013,2.45607 -18.248643,5.59969 -21.084669,5.59969 -2.836027,0 -19.6666571,-3.14362 -21.08467039,-5.59969 C -1.1930306,288.94425 4.49983,272.79669 5.9178431,270.34062 7.3358563,267.88455 18.473626,254.8806 21.309652,254.8806 c 2.836027,0 13.973796,13.00395 15.391809,15.46002 1.418013,2.45607 7.110874,18.60363 5.692861,21.0597 z" />
      <path
         transform="matrix(-0.75726031,-0.75726031,0.76914883,-0.76914883,-105.93335,469.8015)"
         style="fill:none;stroke:#ff0000;stroke-width:5.09589;stroke-miterlimit:4;stroke-dasharray:none;stroke-opacity:1"
         inkscape:transform-center-y="-6.6206615"
         inkscape:randomized="0"
         inkscape:rounded="0.13"
         inkscape:flatsided="false"
         sodipodi:arg2="1.5707963"
         sodipodi:arg1="0.52359878"
         sodipodi:r2="17.77293"
         sodipodi:r1="24.346479"
         sodipodi:cy="279.22708"
         sodipodi:cx="21.309652"
         sodipodi:sides="3"
         id="path21-2-2-9-3"
         sodipodi:type="star"
         d="m 42.394322,291.40032 c -1.418013,2.45607 -18.248643,5.59969 -21.084669,5.59969 -2.836027,0 -19.6666571,-3.14362 -21.08467039,-5.59969 C -1.1930306,288.94425 4.49983,272.79669 5.9178431,270.34062 7.3358563,267.88455 18.473626,254.8806 21.309652,254.8806 c 2.836027,0 13.973796,13.00395 15.391809,15.46002 1.418013,2.45607 7.110874,18.60363 5.692861,21.0597 z" />
      <path
         transform="matrix(-1.0709278,0,0,-1.0877407,144.88441,554.78095)"
         style="fill:none;stroke:#ff0000;stroke-width:5.09589;stroke-miterlimit:4;stroke-dasharray:none;stroke-opacity:1"
         inkscape:transform-center-y="-6.6206615"
         inkscape:randomized="0"
         inkscape:rounded="0.13"
         inkscape:flatsided="false"
         sodipodi:arg2="1.5707963"
         sodipodi:arg1="0.52359878"
         sodipodi:r2="17.77293"
         sodipodi:r1="24.346479"
         sodipodi:cy="279.22708"
         sodipodi:cx="21.309652"
         sodipodi:sides="3"
         id="path21-2-2-9-0-2"
         sodipodi:type="star"
         d="m 42.394322,291.40032 c -1.418013,2.45607 -18.248643,5.59969 -21.084669,5.59969 -2.836027,0 -19.6666571,-3.14362 -21.08467039,-5.59969 C -1.1930306,288.94425 4.49983,272.79669 5.9178431,270.34062 7.3358563,267.88455 18.473626,254.8806 21.309652,254.8806 c 2.836027,0 13.973796,13.00395 15.391809,15.46002 1.418013,2.45607 7.110874,18.60363 5.692861,21.0597 z" />
      <path
         transform="matrix(-0.75726031,0.75726031,-0.76914883,-0.76914883,382.32892,437.51558)"
         style="fill:none;stroke:#ff0000;stroke-width:5.09589;stroke-miterlimit:4;stroke-dasharray:none;stroke-opacity:1"
         inkscape:transform-center-y="-6.6206615"
         inkscape:randomized="0"
         inkscape:rounded="0.13"
         inkscape:flatsided="false"
         sodipodi:arg2="1.5707963"
         sodipodi:arg1="0.52359878"
         sodipodi:r2="17.77293"
         sodipodi:r1="24.346479"
         sodipodi:cy="279.22708"
         sodipodi:cx="21.309652"
         sodipodi:sides="3"
         id="path21-2-2-9-0-6-8"
         sodipodi:type="star"
         d="m 42.394322,291.40032 c -1.418013,2.45607 -18.248643,5.59969 -21.084669,5.59969 -2.836027,0 -19.6666571,-3.14362 -21.08467039,-5.59969 C -1.1930306,288.94425 4.49983,272.79669 5.9178431,270.34062 7.3358563,267.88455 18.473626,254.8806 21.309652,254.8806 c 2.836027,0 13.973796,13.00395 15.391809,15.46002 1.418013,2.45607 7.110874,18.60363 5.692861,21.0597 z" />
      <path
         transform="matrix(0,1.0709278,-1.0877407,0,467.3084,186.6978)"
         style="fill:none;stroke:#ff0000;stroke-width:5.09589;stroke-miterlimit:4;stroke-dasharray:none;stroke-opacity:1"
         inkscape:transform-center-y="-6.6206615"
         inkscape:randomized="0"
         inkscape:rounded="0.13"
         inkscape:flatsided="false"
         sodipodi:arg2="1.5707963"
         sodipodi:arg1="0.52359878"
         sodipodi:r2="17.77293"
         sodipodi:r1="24.346479"
         sodipodi:cy="279.22708"
         sodipodi:cx="21.309652"
         sodipodi:sides="3"
         id="path21-2-2-9-0-6-7-2"
         sodipodi:type="star"
         d="m 42.394322,291.40032 c -1.418013,2.45607 -18.248643,5.59969 -21.084669,5.59969 -2.836027,0 -19.6666571,-3.14362 -21.08467039,-5.59969 C -1.1930306,288.94425 4.49983,272.79669 5.9178431,270.34062 7.3358563,267.88455 18.473626,254.8806 21.309652,254.8806 c 2.836027,0 13.973796,13.00395 15.391809,15.46002 1.418013,2.45607 7.110874,18.60363 5.692861,21.0597 z" />
      <path
         transform="matrix(0.75726031,0.75726031,-0.76914883,0.76914883,350.043,-50.746713)"
         style="fill:none;stroke:#ff0000;stroke-width:5.09589;stroke-miterlimit:4;stroke-dasharray:none;stroke-opacity:1"
         inkscape:transform-center-y="-6.6206615"
         inkscape:randomized="0"
         inkscape:rounded="0.13"
         inkscape:flatsided="false"
         sodipodi:arg2="1.5707963"
         sodipodi:arg1="0.52359878"
         sodipodi:r2="17.77293"
         sodipodi:r1="24.346479"
         sodipodi:cy="279.22708"
         sodipodi:cx="21.309652"
         sodipodi:sides="3"
         id="path21-2-2-9-0-6-7-0-3"
         sodipodi:type="star"
         d="m 42.394322,291.40032 c -1.418013,2.45607 -18.248643,5.59969 -21.084669,5.59969 -2.836027,0 -19.6666571,-3.14362 -21.08467039,-5.59969 C -1.1930306,288.94425 4.49983,272.79669 5.9178431,270.34062 7.3358563,267.88455 18.473626,254.8806 21.309652,254.8806 c 2.836027,0 13.973796,13.00395 15.391809,15.46002 1.418013,2.45607 7.110874,18.60363 5.692861,21.0597 z" />
      <path
         sodipodi:nodetypes="cc"
         inkscape:connector-curvature="0"
         id="path831-5"
         d="m 122.05482,166.07056 v 43.45683"
         style="fill:none;stroke:#2a2a2a;stroke-width:2.5;stroke-linecap:round;stroke-linejoin:miter;stroke-miterlimit:4;stroke-dasharray:none;stroke-opacity:1" />
      <path
         sodipodi:nodetypes="cc"
         inkscape:connector-curvature="0"
         id="path831-9-1"
         d="m 91.326205,178.79877 30.728615,30.72862"
         style="fill:none;stroke:#2a2a2a;stroke-width:2.5;stroke-linecap:round;stroke-linejoin:miter;stroke-miterlimit:4;stroke-dasharray:none;stroke-opacity:1" />
      <path
         sodipodi:nodetypes="cc"
         inkscape:connector-curvature="0"
         id="path831-9-7-0"
         d="M 78.597995,209.52738 H 122.05482"
         style="fill:none;stroke:#2a2a2a;stroke-width:2.5;stroke-linecap:round;stroke-linejoin:miter;stroke-miterlimit:4;stroke-dasharray:none;stroke-opacity:1" />
      <path
         sodipodi:nodetypes="cc"
         inkscape:connector-curvature="0"
         id="path831-9-7-3-60"
         d="M 91.326211,240.25601 122.05483,209.52739"
         style="fill:none;stroke:#2a2a2a;stroke-width:2.5;stroke-linecap:round;stroke-linejoin:miter;stroke-miterlimit:4;stroke-dasharray:none;stroke-opacity:1" />
      <path
         sodipodi:nodetypes="cc"
         inkscape:connector-curvature="0"
         id="path831-9-7-3-6-6"
         d="M 122.05481,252.98421 V 209.52738"
         style="fill:none;stroke:#2a2a2a;stroke-width:2.5;stroke-linecap:round;stroke-linejoin:miter;stroke-miterlimit:4;stroke-dasharray:none;stroke-opacity:1" />
      <path
         sodipodi:nodetypes="cc"
         inkscape:connector-curvature="0"
         id="path831-9-7-3-6-1-7"
         d="M 152.78343,240.25602 122.05482,209.5274"
         style="fill:none;stroke:#2a2a2a;stroke-width:2.5;stroke-linecap:round;stroke-linejoin:miter;stroke-miterlimit:4;stroke-dasharray:none;stroke-opacity:1" />
      <path
         sodipodi:nodetypes="cc"
         inkscape:connector-curvature="0"
         id="path831-9-7-3-6-1-9-0"
         d="M 165.51165,209.5274 H 122.05482"
         style="fill:none;stroke:#2a2a2a;stroke-width:2.5;stroke-linecap:round;stroke-linejoin:miter;stroke-miterlimit:4;stroke-dasharray:none;stroke-opacity:1" />
      <path
         sodipodi:nodetypes="cc"
         inkscape:connector-curvature="0"
         id="path831-9-7-3-6-1-9-2-7"
         d="M 152.78344,178.79878 122.05482,209.5274"
         style="fill:none;stroke:#2a2a2a;stroke-width:2.5;stroke-linecap:round;stroke-linejoin:miter;stroke-miterlimit:4;stroke-dasharray:none;stroke-opacity:1" />
      <circle
         style="fill:none;stroke:#ff0000;stroke-width:6;stroke-linecap:round;stroke-miterlimit:4;stroke-dasharray:none;stroke-opacity:1"
         id="path1077-5"
         cx="209.7719"
         cy="-121.6341"
         r="76.325897"
         transform="rotate(89.885027)" />
    </g>
  </g>
</svg>
