<?xml version="1.0" encoding="UTF-8" standalone="no"?>
<!-- Created with Inkscape (http://www.inkscape.org/) -->

<svg
   width="42.333221mm"
   height="7.9375005mm"
   viewBox="0 0 42.333221 7.9375005"
   version="1.1"
   id="svg1"
   inkscape:version="1.3.2 (091e20ef0f, 2023-11-25, custom)"
   sodipodi:docname="logo-dark.svg"
   inkscape:export-filename="logo-dark.png"
   inkscape:export-xdpi="96"
   inkscape:export-ydpi="96"
   xmlns:inkscape="http://www.inkscape.org/namespaces/inkscape"
   xmlns:sodipodi="http://sodipodi.sourceforge.net/DTD/sodipodi-0.dtd"
   xmlns="http://www.w3.org/2000/svg"
   xmlns:svg="http://www.w3.org/2000/svg">
  <sodipodi:namedview
     id="namedview1"
     pagecolor="#ffffff"
     bordercolor="#000000"
     borderopacity="0.25"
     inkscape:showpageshadow="2"
     inkscape:pageopacity="0.0"
     inkscape:pagecheckerboard="0"
     inkscape:deskcolor="#d1d1d1"
     inkscape:document-units="mm"
     inkscape:zoom="0.45433502"
     inkscape:cx="31.914775"
     inkscape:cy="248.71515"
     inkscape:window-width="1366"
     inkscape:window-height="714"
     inkscape:window-x="0"
     inkscape:window-y="30"
     inkscape:window-maximized="1"
     inkscape:current-layer="layer1" />
  <defs
     id="defs1" />
  <g
     inkscape:label="Camada 1"
     inkscape:groupmode="layer"
     id="layer1"
     transform="translate(-96.572917,-82.814583)">
    <path
       style="font-size:9.87765px;line-height:1.3;font-family:Montserrat;-inkscape-font-specification:Montserrat;text-align:center;letter-spacing:2.01609px;text-anchor:middle;fill:#cccccc;stroke-width:0.789225;stroke-linecap:round;stroke-linejoin:round"
       d="m 106.8547,88.030655 -0.0213,-0.637835 3.00491,-3.089956 h 0.6024 l -2.1899,2.296206 -0.29766,0.318918 z m -0.45357,1.233147 v -4.960938 h 0.52444 v 4.960938 z m 3.56479,0 -2.14029,-2.466294 0.35435,-0.382702 2.4096,2.848996 z m 1.93552,0 2.26785,-4.960938 h 0.51736 l 2.26786,4.960938 h -0.5528 l -2.08359,-4.656195 h 0.21261 l -2.08359,4.656195 z m 0.89297,-1.325279 0.15591,-0.425223 h 2.88443 l 0.15592,0.425223 z m 5.93971,1.325279 v -0.36144 l 3.4443,-4.344363 0.0567,0.198437 h -3.45139 v -0.453572 h 3.93331 v 0.36144 l -3.43722,4.344364 -0.0638,-0.198437 h 3.58605 v 0.453571 z m 5.75544,0 2.26786,-4.960938 h 0.51736 l 2.26785,4.960938 h -0.55279 l -2.08359,-4.656195 h 0.21261 l -2.08359,4.656195 z m 0.89297,-1.325279 0.15592,-0.425223 h 2.88443 l 0.15591,0.425223 z m 6.42872,1.325279 v -4.960938 h 1.85681 q 0.63075,0 1.08432,0.205524 0.45357,0.198438 0.69453,0.581139 0.24805,0.375614 0.24805,0.91423 0,0.524442 -0.24805,0.907143 -0.24096,0.375614 -0.69453,0.581138 -0.45357,0.198438 -1.08432,0.198438 h -1.56624 l 0.23387,-0.24096 v 1.814286 z m 3.38761,0 -1.27567,-1.800111 h 0.56697 l 1.28275,1.800111 z m -2.86317,-1.771764 -0.23387,-0.248046 h 1.55206 q 0.74415,0 1.12685,-0.326004 0.38978,-0.326006 0.38978,-0.914231 0,-0.595312 -0.38978,-0.921316 -0.3827,-0.326005 -1.12685,-0.326005 h -1.55206 l 0.23387,-0.248048 z m 6.04601,1.771764 v -4.960938 h 0.52444 v 4.960938 z"
       id="path1"
       aria-label="KAZARI" />
    <g
       id="g18"
       transform="matrix(0.05003095,0,0,0.05003095,73.145339,86.988303)">
      <circle
         transform="rotate(89.885027)"
         r="76.325897"
         cy="-547.59473"
         cx="-2.9980376"
         id="circle1"
         style="fill:#ffffff;stroke:#ff0000;stroke-width:6;stroke-linecap:round;stroke-miterlimit:4;stroke-dasharray:none;stroke-opacity:1" />
      <g
         transform="translate(522.58763,-321.09687)"
         id="g3">
        <path
           sodipodi:type="star"
           id="path2"
           sodipodi:sides="3"
           sodipodi:cx="21.309652"
           sodipodi:cy="279.22708"
           sodipodi:r1="24.346479"
           sodipodi:r2="17.77293"
           sodipodi:arg1="0.52359878"
           sodipodi:arg2="1.5707963"
           inkscape:flatsided="false"
           inkscape:rounded="0.13"
           inkscape:randomized="0"
           d="m 42.394322,291.40032 c -1.418013,2.45607 -18.248643,5.59969 -21.084669,5.59969 -2.836027,0 -19.6666571,-3.14362 -21.08467039,-5.59969 C -1.1930306,288.94425 4.49983,272.79669 5.9178431,270.34062 7.3358563,267.88455 18.473626,254.8806 21.309652,254.8806 c 2.836027,0 13.973796,13.00395 15.391809,15.46002 1.418013,2.45607 7.110874,18.60363 5.692861,21.0597 z"
           inkscape:transform-center-y="-6.6206615"
           style="fill:none;stroke:#ff0000;stroke-width:5.09589;stroke-miterlimit:4;stroke-dasharray:none;stroke-opacity:1"
           transform="matrix(1.0709278,0,0,1.0877407,2.1704003,-28.253575)" />
        <path
           style="fill:none;stroke:#010101;stroke-width:1;stroke-linecap:round;stroke-linejoin:miter;stroke-miterlimit:4;stroke-dasharray:none;stroke-opacity:1"
           d="M 25,273.54317 V 317"
           id="path3"
           inkscape:connector-curvature="0"
           sodipodi:nodetypes="cc" />
      </g>
      <g
         id="g5"
         transform="rotate(-45,-101.30439,-474.36751)">
        <path
           sodipodi:type="star"
           id="path4"
           sodipodi:sides="3"
           sodipodi:cx="21.309652"
           sodipodi:cy="279.22708"
           sodipodi:r1="24.346479"
           sodipodi:r2="17.77293"
           sodipodi:arg1="0.52359878"
           sodipodi:arg2="1.5707963"
           inkscape:flatsided="false"
           inkscape:rounded="0.13"
           inkscape:randomized="0"
           d="m 42.394322,291.40032 c -1.418013,2.45607 -18.248643,5.59969 -21.084669,5.59969 -2.836027,0 -19.6666571,-3.14362 -21.08467039,-5.59969 C -1.1930306,288.94425 4.49983,272.79669 5.9178431,270.34062 7.3358563,267.88455 18.473626,254.8806 21.309652,254.8806 c 2.836027,0 13.973796,13.00395 15.391809,15.46002 1.418013,2.45607 7.110874,18.60363 5.692861,21.0597 z"
           inkscape:transform-center-y="-6.6206615"
           style="fill:none;stroke:#ff0000;stroke-width:5.09589;stroke-miterlimit:4;stroke-dasharray:none;stroke-opacity:1"
           transform="matrix(1.0709278,0,0,1.0877407,2.1704003,-28.253575)" />
        <path
           style="fill:none;stroke:#010101;stroke-width:1;stroke-linecap:round;stroke-linejoin:miter;stroke-miterlimit:4;stroke-dasharray:none;stroke-opacity:1"
           d="M 25,273.54317 V 317"
           id="path5"
           inkscape:connector-curvature="0"
           sodipodi:nodetypes="cc" />
      </g>
      <g
         id="g7"
         transform="rotate(-90,125.74538,-104.84225)">
        <path
           sodipodi:type="star"
           id="path6"
           sodipodi:sides="3"
           sodipodi:cx="21.309652"
           sodipodi:cy="279.22708"
           sodipodi:r1="24.346479"
           sodipodi:r2="17.77293"
           sodipodi:arg1="0.52359878"
           sodipodi:arg2="1.5707963"
           inkscape:flatsided="false"
           inkscape:rounded="0.13"
           inkscape:randomized="0"
           d="m 42.394322,291.40032 c -1.418013,2.45607 -18.248643,5.59969 -21.084669,5.59969 -2.836027,0 -19.6666571,-3.14362 -21.08467039,-5.59969 C -1.1930306,288.94425 4.49983,272.79669 5.9178431,270.34062 7.3358563,267.88455 18.473626,254.8806 21.309652,254.8806 c 2.836027,0 13.973796,13.00395 15.391809,15.46002 1.418013,2.45607 7.110874,18.60363 5.692861,21.0597 z"
           inkscape:transform-center-y="-6.6206615"
           style="fill:none;stroke:#ff0000;stroke-width:5.09589;stroke-miterlimit:4;stroke-dasharray:none;stroke-opacity:1"
           transform="matrix(1.0709278,0,0,1.0877407,2.1704003,-28.253575)" />
        <path
           style="fill:none;stroke:#010101;stroke-width:1;stroke-linecap:round;stroke-linejoin:miter;stroke-miterlimit:4;stroke-dasharray:none;stroke-opacity:1"
           d="M 25,273.54317 V 317"
           id="path7"
           inkscape:connector-curvature="0"
           sodipodi:nodetypes="cc" />
      </g>
      <g
         id="g9"
         transform="rotate(-135,219.79248,48.220123)">
        <path
           sodipodi:type="star"
           id="path8"
           sodipodi:sides="3"
           sodipodi:cx="21.309652"
           sodipodi:cy="279.22708"
           sodipodi:r1="24.346479"
           sodipodi:r2="17.77293"
           sodipodi:arg1="0.52359878"
           sodipodi:arg2="1.5707963"
           inkscape:flatsided="false"
           inkscape:rounded="0.13"
           inkscape:randomized="0"
           d="m 42.394322,291.40032 c -1.418013,2.45607 -18.248643,5.59969 -21.084669,5.59969 -2.836027,0 -19.6666571,-3.14362 -21.08467039,-5.59969 C -1.1930306,288.94425 4.49983,272.79669 5.9178431,270.34062 7.3358563,267.88455 18.473626,254.8806 21.309652,254.8806 c 2.836027,0 13.973796,13.00395 15.391809,15.46002 1.418013,2.45607 7.110874,18.60363 5.692861,21.0597 z"
           inkscape:transform-center-y="-6.6206615"
           style="fill:none;stroke:#ff0000;stroke-width:5.09589;stroke-miterlimit:4;stroke-dasharray:none;stroke-opacity:1"
           transform="matrix(1.0709278,0,0,1.0877407,2.1704003,-28.253575)" />
        <path
           style="fill:none;stroke:#010101;stroke-width:1;stroke-linecap:round;stroke-linejoin:miter;stroke-miterlimit:4;stroke-dasharray:none;stroke-opacity:1"
           d="M 25,273.54317 V 317"
           id="path9"
           inkscape:connector-curvature="0"
           sodipodi:nodetypes="cc" />
      </g>
      <g
         id="g11"
         transform="rotate(180,286.29381,156.45156)">
        <path
           sodipodi:type="star"
           id="path10"
           sodipodi:sides="3"
           sodipodi:cx="21.309652"
           sodipodi:cy="279.22708"
           sodipodi:r1="24.346479"
           sodipodi:r2="17.77293"
           sodipodi:arg1="0.52359878"
           sodipodi:arg2="1.5707963"
           inkscape:flatsided="false"
           inkscape:rounded="0.13"
           inkscape:randomized="0"
           d="m 42.394322,291.40032 c -1.418013,2.45607 -18.248643,5.59969 -21.084669,5.59969 -2.836027,0 -19.6666571,-3.14362 -21.08467039,-5.59969 C -1.1930306,288.94425 4.49983,272.79669 5.9178431,270.34062 7.3358563,267.88455 18.473626,254.8806 21.309652,254.8806 c 2.836027,0 13.973796,13.00395 15.391809,15.46002 1.418013,2.45607 7.110874,18.60363 5.692861,21.0597 z"
           inkscape:transform-center-y="-6.6206615"
           style="fill:none;stroke:#ff0000;stroke-width:5.09589;stroke-miterlimit:4;stroke-dasharray:none;stroke-opacity:1"
           transform="matrix(1.0709278,0,0,1.0877407,2.1704003,-28.253575)" />
        <path
           style="fill:none;stroke:#010101;stroke-width:1;stroke-linecap:round;stroke-linejoin:miter;stroke-miterlimit:4;stroke-dasharray:none;stroke-opacity:1"
           d="M 25,273.54317 V 317"
           id="path11"
           inkscape:connector-curvature="0"
           sodipodi:nodetypes="cc" />
      </g>
      <g
         id="g13"
         transform="rotate(135,352.79515,264.68301)">
        <path
           sodipodi:type="star"
           id="path12"
           sodipodi:sides="3"
           sodipodi:cx="21.309652"
           sodipodi:cy="279.22708"
           sodipodi:r1="24.346479"
           sodipodi:r2="17.77293"
           sodipodi:arg1="0.52359878"
           sodipodi:arg2="1.5707963"
           inkscape:flatsided="false"
           inkscape:rounded="0.13"
           inkscape:randomized="0"
           d="m 42.394322,291.40032 c -1.418013,2.45607 -18.248643,5.59969 -21.084669,5.59969 -2.836027,0 -19.6666571,-3.14362 -21.08467039,-5.59969 C -1.1930306,288.94425 4.49983,272.79669 5.9178431,270.34062 7.3358563,267.88455 18.473626,254.8806 21.309652,254.8806 c 2.836027,0 13.973796,13.00395 15.391809,15.46002 1.418013,2.45607 7.110874,18.60363 5.692861,21.0597 z"
           inkscape:transform-center-y="-6.6206615"
           style="fill:none;stroke:#ff0000;stroke-width:5.09589;stroke-miterlimit:4;stroke-dasharray:none;stroke-opacity:1"
           transform="matrix(1.0709278,0,0,1.0877407,2.1704003,-28.253575)" />
        <path
           style="fill:none;stroke:#010101;stroke-width:1;stroke-linecap:round;stroke-linejoin:miter;stroke-miterlimit:4;stroke-dasharray:none;stroke-opacity:1"
           d="M 25,273.54317 V 317"
           id="path13"
           inkscape:connector-curvature="0"
           sodipodi:nodetypes="cc" />
      </g>
      <g
         id="g15"
         transform="rotate(90,446.84225,417.74538)">
        <path
           sodipodi:type="star"
           id="path14"
           sodipodi:sides="3"
           sodipodi:cx="21.309652"
           sodipodi:cy="279.22708"
           sodipodi:r1="24.346479"
           sodipodi:r2="17.77293"
           sodipodi:arg1="0.52359878"
           sodipodi:arg2="1.5707963"
           inkscape:flatsided="false"
           inkscape:rounded="0.13"
           inkscape:randomized="0"
           d="m 42.394322,291.40032 c -1.418013,2.45607 -18.248643,5.59969 -21.084669,5.59969 -2.836027,0 -19.6666571,-3.14362 -21.08467039,-5.59969 C -1.1930306,288.94425 4.49983,272.79669 5.9178431,270.34062 7.3358563,267.88455 18.473626,254.8806 21.309652,254.8806 c 2.836027,0 13.973796,13.00395 15.391809,15.46002 1.418013,2.45607 7.110874,18.60363 5.692861,21.0597 z"
           inkscape:transform-center-y="-6.6206615"
           style="fill:none;stroke:#ff0000;stroke-width:5.09589;stroke-miterlimit:4;stroke-dasharray:none;stroke-opacity:1"
           transform="matrix(1.0709278,0,0,1.0877407,2.1704003,-28.253575)" />
        <path
           style="fill:none;stroke:#010101;stroke-width:1;stroke-linecap:round;stroke-linejoin:miter;stroke-miterlimit:4;stroke-dasharray:none;stroke-opacity:1"
           d="M 25,273.54317 V 317"
           id="path15"
           inkscape:connector-curvature="0"
           sodipodi:nodetypes="cc" />
      </g>
      <g
         id="g17"
         transform="rotate(45,673.89202,787.27064)">
        <path
           sodipodi:type="star"
           id="path16"
           sodipodi:sides="3"
           sodipodi:cx="21.309652"
           sodipodi:cy="279.22708"
           sodipodi:r1="24.346479"
           sodipodi:r2="17.77293"
           sodipodi:arg1="0.52359878"
           sodipodi:arg2="1.5707963"
           inkscape:flatsided="false"
           inkscape:rounded="0.13"
           inkscape:randomized="0"
           d="m 42.394322,291.40032 c -1.418013,2.45607 -18.248643,5.59969 -21.084669,5.59969 -2.836027,0 -19.6666571,-3.14362 -21.08467039,-5.59969 C -1.1930306,288.94425 4.49983,272.79669 5.9178431,270.34062 7.3358563,267.88455 18.473626,254.8806 21.309652,254.8806 c 2.836027,0 13.973796,13.00395 15.391809,15.46002 1.418013,2.45607 7.110874,18.60363 5.692861,21.0597 z"
           inkscape:transform-center-y="-6.6206615"
           style="fill:none;stroke:#ff0000;stroke-width:5.09589;stroke-miterlimit:4;stroke-dasharray:none;stroke-opacity:1"
           transform="matrix(1.0709278,0,0,1.0877407,2.1704003,-28.253575)" />
        <path
           style="fill:none;stroke:#010101;stroke-width:1;stroke-linecap:round;stroke-linejoin:miter;stroke-miterlimit:4;stroke-dasharray:none;stroke-opacity:1"
           d="M 25,273.54317 V 317"
           id="path17"
           inkscape:connector-curvature="0"
           sodipodi:nodetypes="cc" />
      </g>
    </g>
  </g>
</svg>
